<?xml version="1.0" encoding="UTF-8" standalone="no"?>
<!-- Created with Inkscape (http://www.inkscape.org/) -->

<svg
   width="210mm"
   height="297mm"
   viewBox="0 0 210 297"
   version="1.1"
   id="svg5"
   inkscape:version="1.1.1 (3bf5ae0d25, 2021-09-20)"
   sodipodi:docname="Zeichnung.svg"
   xmlns:inkscape="http://www.inkscape.org/namespaces/inkscape"
   xmlns:sodipodi="http://sodipodi.sourceforge.net/DTD/sodipodi-0.dtd"
   xmlns="http://www.w3.org/2000/svg"
   xmlns:svg="http://www.w3.org/2000/svg">
  <sodipodi:namedview
     id="namedview7"
     pagecolor="#ffffff"
     bordercolor="#666666"
     borderopacity="1.0"
     inkscape:pageshadow="2"
     inkscape:pageopacity="0.0"
     inkscape:pagecheckerboard="0"
     inkscape:document-units="mm"
     showgrid="false"
     inkscape:zoom="2.4305194"
     inkscape:cx="340.87364"
     inkscape:cy="234.10634"
     inkscape:window-width="2880"
     inkscape:window-height="1796"
     inkscape:window-x="-12"
     inkscape:window-y="-12"
     inkscape:window-maximized="1"
     inkscape:current-layer="layer1" />
  <defs
     id="defs2" />
  <g
     inkscape:label="Ebene 1"
     inkscape:groupmode="layer"
     id="layer1">
    <path
       style="fill:none;stroke:#000000;stroke-width:0.264583px;stroke-linecap:butt;stroke-linejoin:miter;stroke-opacity:1"
       d="m -46.486384,4.6077385 c -0.06669,0.608535 -0.224556,1.211708 0.125914,1.797162 0.568635,0.949896 1.185484,0.939619 2.117636,0.297619 2.258348,-1.555388 3.300935,-4.320449 4.235274,-6.75366703 0.35661,-0.928689 0.446038,-1.31039897 0.950074,-2.03754697 0.0173,-0.02496 0.457654,-0.67692 0.663908,-0.503663 0.499293,0.419413 0.261057,2.17513097 0.274721,2.64423197 0.03837,1.31733103 0.115226,2.63392403 0.194593,3.94917803 0.01076,0.178367 0.160768,1.775977 0.309061,1.797162 0.09979,0.01426 0.115505,-0.16813 0.148806,-0.263278 0.786634,-2.247567 -0.492127,1.052886 0.469314,-1.69414 0.41324,-1.180706 2.053038,-5.398247 3.067712,-6.04396 0.194245,-0.123613 0.248224,0.0064 0.228933,0.286172 -0.04502,0.652805 -0.318093,1.26998297 -0.44642,1.91163197 -0.216339,1.08171503 -0.667432,5.30198403 0.13736,6.13553403 0.367882,0.381028 0.947104,0.312487 1.396496,0.251832 1.587233,-0.214232 3.635504,-1.229939 3.685831,-3.102108 0.06989,-2.60007803 -2.032928,-1.285738 -2.003169,0.251832 0.01499,0.774535 0.344359,1.214515 0.927181,1.682693 1.182681,0.95004 2.365517,0.0074 2.987584,-1.076008 0.278744,-0.485458 0.328811,-1.154542 0.778375,-1.488096 0.111834,-0.08298 0.275463,-0.09565 0.412081,-0.06868 1.175599,0.232031 1.165534,1.703669 1.156115,2.598445 -0.0013,0.133594 -0.02254,0.533781 -0.01146,0.400641 0.05432,-0.6519 -0.144303,-1.470623 0.148807,-2.071887 0.08534,-0.175053 0.236723,-0.310896 0.331955,-0.48077 0.06618,-0.118049 0.01648,-0.406104 0.148807,-0.377747 0.314359,0.06736 0.164864,0.514009 0.972968,0.343407 0.793226,-0.167463 0.539125,-1.132646 0.595228,0.171703 0.0082,0.190948 0.0254,0.38143 0.03434,0.572345 0.01394,0.297512 0.01357,0.595744 0.03434,0.892857 0.01741,0.248843 0.05389,0.495982 0.08013,0.744048 0.01574,0.148761 0.02643,0.298095 0.04579,0.446429 0.0036,0.02754 0.02604,0.107727 0.02289,0.08013 -0.08596,-0.752147 -0.229767,-1.530053 -0.206039,-2.289378 0.0057,-0.182504 0.02625,-0.372335 0.103021,-0.538004 0.01799,-0.03886 0.746768,-0.902201 0.892839,-0.789836 0.261797,0.201384 0.151762,0.582512 0.49221,0.778389 0.670417,0.385727 1.879364,0.562765 2.632736,0.412088 0.674645,-0.134932 1.317771,-0.54209 1.842916,-0.972986 0.131746,-0.108101 0.488799,-0.618132 0.537995,-0.618132 0.104214,0 -0.0723,0.196807 -0.125915,0.286172 -0.204113,0.340197 -0.462727,0.619944 -0.526547,1.030221 -0.06545,0.420753 0.560096,0.660039 0.812715,0.732601 1.105943,0.31767 3.222654,-1.095238 3.445452,-2.209251 0.02769,-0.138434 -0.295624,0.043 -0.400635,0.137363 -2.28578,2.053928 -2.049748,10.1967865 -6.204103,9.9931365 -2.05594,-0.100782 1.825265,-2.4284535 2.060403,-2.5869975 1.724038,-1.16244 3.488962,-2.286449 5.116668,-3.582877 1.374035,-1.094383 2.7357738,-2.415302 4.3154018,-3.20513"
       id="path1058" />
    <path
       style="fill:none;stroke:#000000;stroke-width:0.264583px;stroke-linecap:butt;stroke-linejoin:miter;stroke-opacity:1"
       d="m -2.9088562,-3.6912595 c 0.478697,1.207701 4.706826,0.45027 4.38408,-0.652473 -0.249209,-0.851478 -1.80407497,0.58443 -1.95738497,0.755495 -0.98802103,1.102445 -1.97458803,4.06156397 -1.33926003,5.448721 0.669509,1.461794 2.76100303,1.104201 3.914764,0.766942 1.035992,-0.302834 2.21678,-0.724501 3.113498,-1.350733 0.469699,-0.32801903 0.910042,-0.70898503 1.28203,-1.14469003 0.836544,-0.979839 2.282635,-3.93312697 0.320506,-4.63599197 -2.370505,-0.849151 -2.20826,6.402075 -1.602536,7.440481 0.08453,0.144906 0.136855,-0.313438 0.148807,-0.480769 0.03258,-0.45618 -0.06455,-1.46273903 0.675354,-1.53388403 1.033531,-0.09938 0.295997,2.77410603 2.151978,1.86584403 0.892188,-0.436612 1.520396,-3.06009503 2.4381432,-2.64423303 0.63523,0.287844 0.617561,1.25360603 0.572334,1.83150303 -0.01865,0.23832 -0.06591,0.473557 -0.103019,0.709707 -0.0049,0.03108 -0.03529,0.120496 -0.02289,0.09158 0.252944,-0.590217 0.467638,-1.213295 0.675354,-1.82005603 0.171143,-0.499926 0.271328,-0.834686 0.331954,-0.778389 0.277114,0.257325 0.22546,0.691305 0.606674,0.96153903 1.225722,0.868881 2.542334,-0.0054 2.827332,-1.31639303 0.03726,-0.17139 -0.299516,0.215565 -0.366294,0.377748 -0.250532,0.608443 -0.321612,1.66902503 -0.114467,2.30082503 0.357116,1.089224 2.085187,0.510173 2.598396,-0.03434 0.55191,-0.585572 0.752869,-1.430921 1.190456,-2.08333403 0.09964,-0.148551 1.416431,-1.080517 1.430835,-0.835623 0.01624,0.276015 -0.541139,0.300787 -0.320506,0.88141 0.325197,0.85580203 1.011531,1.06973703 0.72114,2.32372003 -0.05961,0.257417 -0.705945,1.466352 -1.087434,0.766942 -0.01646,-0.03015 0.06896,-0.0044 0.10302,0 0.215721,0.02766 0.526109,0.113257 0.744035,0.06868 1.817344,-0.371736 2.637282,-2.59308403 3.376771,-4.02930603 0.196141,-0.380942 0.404466,-0.75548597 0.606674,-1.13324297 0.145008,-0.2709 0.281869,-0.546321 0.434975,-0.812729 0.03802,-0.06616 0.174136,-0.250017 0.137359,-0.18315 -0.33773,0.614069 -2.071778,3.858038 -1.991723,4.338372 0.029,0.173986 0.319725,-0.181685 0.412081,-0.33196 0.205176,-0.333852 1.042051,-2.04198003 0.09158,-1.96886503 -0.229598,0.01766 -0.600477,0.171012 -0.789824,0.331959 -0.828373,0.704131 3.153902,-0.585673 2.151978,-0.274725 -2.191523,0.68014 -2.701528,4.12511903 0.503653,2.81593603 0.485055,-0.198125 1.007628,-0.351353 1.419389,-0.675367 0.578551,-0.455261 0.991489,-2.45902403 1.625431,-2.50687003 0.987417,-0.07452 0.386304,2.71469203 0.72114,2.89606403 0.190971,0.103445 0.137361,-0.412088 0.206039,-0.618132 0.102357,-0.307073 0.84796,-2.562416 1.465178,-2.472529 1.123659,0.16364297 1.012605,1.48202597 0.892841,2.232144 -0.03562,0.223104 -0.256582,0.781688 -0.05723,0.675367 0.457967,-0.244254 0.723844,-1.91343803 1.156115,-2.55265703 0.690946,-1.02173697 1.621899,-0.70413097 1.90015,0.423535 0.206624,0.837389 -0.327866,1.75283803 0.01146,2.55265703 0.236775,0.558124 1.169821,0.353551 1.499515,0.297619 1.471158,-0.249576 4.244369,-1.105693 4.269613,-2.99908603 0.0051,-0.379014 -0.28236,-1.06012197 -0.75548,-1.13324197 -1.424914,-0.220218 -2.620164,2.31918997 -1.419389,3.193683 1.302099,0.948285 2.556959,-0.89379503 2.99903,-1.82005603 0.106027,-0.222155 0.291958,-0.457565 0.240382,-0.69826 -0.03377,-0.15760897 -0.16479,0.492651 -0.263276,0.812729 -0.157136,0.510705 -0.677709,1.045055 0.08013,1.41941503 0.177789,0.08783 0.38648,0.134341 0.583779,0.114469 1.24097,-0.124992 2.21276,-1.05343503 2.99903,-1.93452503 0.20792,-0.232992 0.36602,-0.506289 0.538,-0.76694197 0.0878,-0.133043 0.25031,-0.483754 0.0916,-0.469323 -0.38362,0.03487 -0.5088,0.218445 -0.50365,0.583792 0.0125,0.88430897 1.17394,0.73477997 1.62543,1.28205197 0.44593,0.540539 0.48441,1.54892403 -0.0687,2.04899403 -0.14936,0.135042 -0.34171,0.229792 -0.53799,0.274725 -0.42123,0.09643 -0.63182,-0.303273 -0.36629,0.194597 0.0928,0.174018 0.11401,0.242712 0.30906,0.377748 1.50995,1.045373 4.36684,-0.885416 4.60156,-2.56410403 0.18104,-1.294707 -0.49146,-2.51618097 -1.23624,-3.50274997 -2.58066,-3.41845 -6.466524,-4.040727 -10.427955,-4.7619109 -1.167654,-0.2125731 -6.19556,-0.9669687 -7.772299,-0.9844328 -3.239908,-0.035886 -6.708564,0.4152992 -9.855595,1.1904768 -0.778208,0.1916889 -1.538001,0.4522639 -2.300784,0.6982609 -1.577121,0.50862 -4.830128,1.475411 -3.857533,3.846156 0.262663,0.640252 1.185791,0.838362 1.465175,0.125915 0.601197,-1.533075 -0.781663,-2.796963 -1.945936,-3.537089 -2.776611,-1.765092 -7.2956392,-2.7352775 -10.5195022,-3.1593429 -4.44459597,-0.5846406 -8.940649,-0.6311926 -13.415513,-0.6868136 -5.0051728,-0.06221 -9.9420728,0.08734 -14.9264758,0.5608976 -3.355015,0.3187528 -5.444178,0.5645234 -8.73382,1.1103488 -4.768375,0.7911795 -11.337376,2.0366931 -13.404068,7.1543081 -0.456252,1.12978797 -0.436469,2.42725897 -0.58378,3.605771"
       id="path1060" />
  </g>
</svg>
