<?xml version="1.0" encoding="UTF-8" standalone="no"?>
<svg
   xmlns:dc="http://purl.org/dc/elements/1.1/"
   xmlns:cc="http://creativecommons.org/ns#"
   xmlns:rdf="http://www.w3.org/1999/02/22-rdf-syntax-ns#"
   xmlns:svg="http://www.w3.org/2000/svg"
   xmlns="http://www.w3.org/2000/svg"
   xmlns:sodipodi="http://sodipodi.sourceforge.net/DTD/sodipodi-0.dtd"
   xmlns:inkscape="http://www.inkscape.org/namespaces/inkscape"
   width="210mm"
   height="297mm"
   viewBox="0 0 210 297"
   version="1.1"
   id="svg8"
   inkscape:version="1.0.1 (3bc2e813f5, 2020-09-07)"
   sodipodi:docname="img3.svg">
  <defs
     id="defs2" />
  <sodipodi:namedview
     id="base"
     pagecolor="#ffffff"
     bordercolor="#666666"
     borderopacity="1.0"
     inkscape:pageopacity="0.0"
     inkscape:pageshadow="2"
     inkscape:zoom="0.98994949"
     inkscape:cx="399.58581"
     inkscape:cy="411.80195"
     inkscape:document-units="mm"
     inkscape:current-layer="layer1"
     inkscape:document-rotation="0"
     showgrid="false"
     inkscape:window-width="1920"
     inkscape:window-height="1017"
     inkscape:window-x="1912"
     inkscape:window-y="-8"
     inkscape:window-maximized="1" />
  <metadata
     id="metadata5">
    <rdf:RDF>
      <cc:Work
         rdf:about="">
        <dc:format>image/svg+xml</dc:format>
        <dc:type
           rdf:resource="http://purl.org/dc/dcmitype/StillImage" />
        <dc:title></dc:title>
      </cc:Work>
    </rdf:RDF>
  </metadata>
  <g
     inkscape:label="Ebene 1"
     inkscape:groupmode="layer"
     id="layer1">
    <path
       style="fill:none;stroke:#000000;stroke-width:0.264583px;stroke-linecap:butt;stroke-linejoin:miter;stroke-opacity:1"
       d="M 42.228584,48.108515 C 122.40944,23.519718 197.77945,62.808339 197.77945,62.808339 c 0,0 -9.88897,168.914341 -24.85607,97.553381 -14.96709,-71.360968 -3.4745,-93.277069 -3.4745,-93.277069 0,0 -72.162772,-42.228585 -59.86838,-0.267269 C 121.8749,108.7787 97.553377,184.1487 69.757345,142.72193 41.961315,101.29515 32.072344,82.586284 55.85933,78.0427 79.646319,73.499119 137.37654,52.919365 85.793518,58.264755 34.2105,63.610148 -4.2763125,82.586284 9.621703,51.04848 23.519718,19.510675 37.685003,4.0090428 81.784475,8.0180856 125.88395,12.027129 139.51469,12.027129 161.96533,23.519718 c 22.45064,11.492589 55.59206,25.123335 3.74178,18.976135 -51.85029,-6.147197 -45.70309,-11.225318 -75.370011,-16.30344 -29.666916,-5.078121 -34.2105,-6.147199 -47.039437,1.870888 -12.828936,8.018084 -23.252448,9.621702 -14.165283,21.64883 9.087162,12.02713 -56.126602,139.514689 0,145.929159 56.126599,6.41447 136.841991,12.56167 134.703841,-10.95805 -2.13816,-23.51972 -5.07812,-70.02461 -19.24341,-73.23185 -14.16528,-3.20723 -30.20145,1.06908 -31.27053,12.2944 -1.06908,11.22532 -2.13816,44.63401 12.02713,41.42678 14.16528,-3.20724 38.75408,0.53454 33.94323,-13.36348 -4.81086,-13.89802 -12.2944,-28.59784 -15.23437,-28.0633 -2.93996,0.53454 -9.08716,0.26727 -5.87992,4.27631 3.20723,4.00905 2.13815,6.94901 5.87992,4.81085 3.74178,-2.13815 4.54359,-4.27631 2.13816,-5.61266 -2.40543,-1.33634 -27.26149,-1.87088 -27.26149,-1.87088 0,0 -6.94901,7.21627 -2.6727,9.35443 4.27632,2.13816 8.01809,5.61266 10.69078,0 2.6727,-5.61266 5.87993,-7.75082 -0.26726,-8.01808 -6.1472,-0.26728 -7.75082,-3.74178 -9.88898,0 -2.13815,3.74177 5.07812,26.99422 5.07812,26.99422 0,0 24.32153,11.22532 28.59784,0.26727 C 154.74905,142.9892 192.16679,66.817382 130.42753,68.420998 68.688267,70.024616 42.228584,48.108515 42.228584,48.108515 Z"
       id="path833" />
  </g>
</svg>
